# xmcd CD database file
#
# Track frame offsets:
#	150
#	20387
#	35020
#	48545
#	62698
#	83445
#	102695
#	112643
#	130588
#	145406
#	160451
#	175956
#	188560
#	207433
#	220553
#
# Disc length: 3128 seconds
#
# Revision: 0
# Processed by: cddbd v1.5.2PL0 Copyright (c) Steve Scherf et al.
# Submitted via: CdAid (MTCDDB.DLL V2003.12.21)
#
DISCID=cb0c360f
DTITLE=Violeiros Matutos - Terra Brasil
DYEAR=2000
DGENRE=Country
TTITLE0=Brincadeiras no Sertão - Sérgio Penna
TTITLE1=Cadeira de Balanço - Fabiola Mirella
TTITLE2=Violeiro Matuto - Sérgio Penna
TTITLE3=Não Vi Mais Meu Carro de Boi - Mumbuka
TTITLE4=Tempos Atrás - Sérgio Penna
TTITLE5=Mensageiro Cantador - Sérgio Penna, Cláudio Rugene e Fabiola Mirella
TTITLE6=As Quatro Estações - Pinho da Viola
TTITLE7=Tempo Bom - Mumbuka
TTITLE8=O Rio Tá Cheio - Sérgio Penna
TTITLE9=Lua de Queijo - Fábio Sombra
TTITLE10=Terra Brasil - Sérgio Penna
TTITLE11=Vabou a Luz - Fábio Sombra
TTITLE12=Pra Te Amar De Vez - Sérgio Penna
TTITLE13=Pagode do Tião - Fabiola Mirella
TTITLE14=Minha Sina - Sérgio Penna
EXTD=ID3G:   2 YEAR: 2000
EXTT0=
EXTT1=
EXTT2=
EXTT3=
EXTT4=
EXTT5=
EXTT6=
EXTT7=
EXTT8=
EXTT9=
EXTT10=
EXTT11=
EXTT12=
EXTT13=
EXTT14=
PLAYORDER=
